<?xml version="1.0" encoding="utf-8"?>
<!-- Generator: Adobe Illustrator 25.0.0, SVG Export Plug-In . SVG Version: 6.00 Build 0)  -->
<svg version="1.1" id="Layer_1" xmlns="http://www.w3.org/2000/svg" xmlns:xlink="http://www.w3.org/1999/xlink" x="0px" y="0px"
	 viewBox="0 0 719 301" style="enable-background:new 0 0 719 301;" xml:space="preserve">
<style type="text/css">
	.st0{fill:#FF1A56;}
</style>
<polygon class="st0" points="23.8,22.9 32,75 146.1,75 154.2,22.8 135.9,18.9 133.5,35.9 117.1,34.9 118,17 97.7,16.3 97.6,34 
	80.4,34.1 80.4,16.4 59.3,17.4 60.9,34.9 44.6,36.1 42.6,19.5 "/>
<polygon class="st0" points="11.9,192.5 11.7,210.2 164.4,210.2 164.4,192.5 "/>
<polygon class="st0" points="16.3,245.8 60.1,245.8 159.4,245.8 164.2,228.3 11.7,228.3 "/>
<polygon class="st0" points="87.8,290.5 136.3,264 39.5,264 "/>
<polygon class="st0" points="30.7,158.2 38,158.2 38,144.3 22,144.3 22,136.7 38,136.7 38,126.1 27.2,126.1 27.2,118.5 38,118.5 
	38,107.4 45.6,107.4 45.6,118.5 56.7,118.5 56.7,126.1 45.6,126.1 45.6,136.7 62.1,136.7 62.1,144.3 45.6,144.3 45.6,158.3 
	52.8,158.3 52.8,174.4 79,174.4 79,123 75.9,123 75.9,110.7 78.8,110.7 78.8,115 85.9,115 85.9,110.7 90.4,110.7 90.4,115.1 
	97.3,115.1 97.3,110.7 100.5,110.7 100.5,123 97.4,123 97.4,174.3 123.3,174.3 123.3,158.3 131,158.3 131,144.3 115.1,144.3 
	115.1,136.7 131,136.7 131,126.1 120.2,126.1 120.2,118.5 131,118.5 131,107.4 138.6,107.4 138.6,118.5 149.8,118.5 149.8,126.1 
	138.6,126.1 138.6,136.7 155.1,136.7 155.1,144.3 138.6,144.3 138.6,158.3 145.7,158.3 145.7,174.3 164.3,174.3 164.3,94 12,94 
	12,174.3 30.7,174.3 "/>
<rect x="83" y="126.6" class="st0" width="2.9" height="11.9"/>
<rect x="83" y="142.5" class="st0" width="2.9" height="11.9"/>
<rect x="90.3" y="126.6" class="st0" width="2.9" height="11.9"/>
<rect x="90.3" y="142.5" class="st0" width="2.9" height="11.9"/>
<path d="M229,235.4c-4.8-3-8.6-7.3-11-12.3c-2.6-5.4-3.9-11.3-3.8-17.2c-0.1-6.4,1.4-12.6,4.4-18.2c2.8-5.3,7.1-9.6,12.3-12.6
	c5.4-3.1,11.6-4.7,17.9-4.6c3.8,0,7.5,0.4,11.2,1.3c2.9,0.7,5.7,1.7,8.4,3v16.7h-1c-1.5-5.1-4.4-9.6-8.4-13
	c-3.8-3.4-8.8-5.2-13.9-5.1c-3.9-0.1-7.7,1.1-10.9,3.3c-3.2,2.4-5.7,5.7-7,9.4c-3.5,9.8-3.2,20.6,0.8,30.2c2,4.5,5.1,8.3,9.1,11.2
	c3.9,2.7,8.5,4.1,13.2,4.1c4.4,0.1,8.7-1.2,12.3-3.7c3.6-2.7,6.4-6.3,8.2-10.5h1c-0.7,4.1-2.3,8.1-4.6,11.6c-2.3,3.4-5.4,6.2-9,8.1
	c-3.9,2-8.2,3.1-12.6,3C239.8,240,234,238.5,229,235.4z"/>
<path d="M287.8,238.3c1.7-2.4,2.6-5.7,2.6-9.9v-35.5h-3c-3.2,0-6.2,1.3-8.4,3.6c-2.5,2.6-4.3,5.7-5.3,9.1h-1l1.5-14.8h42.8l1.5,14.8
	h-1c-1-3.4-2.8-6.6-5.3-9.1c-2.2-2.3-5.2-3.6-8.4-3.6h-3v35.5c0,4.2,0.9,7.5,2.6,9.9v0.5h-15.8V238.3z"/>
<path d="M366,236c-0.8,1.2-1.9,2.2-3.2,2.8c-1.5,0.7-3.1,1.1-4.8,1.1c-2.1,0.1-4.2-0.5-5.9-1.7c-1.5-1.2-2.5-3-2.6-5l-0.1-0.8h-0.3
	c-1.3,2.3-3.2,4.2-5.5,5.5c-2.5,1.4-5.4,2.1-8.3,2c-3.8,0-6.8-0.9-9-2.8c-2.2-1.8-3.4-4.6-3.3-7.4c-0.1-3.3,1.3-6.5,3.8-8.8
	c2.8-2.5,6.2-4.3,9.8-5.2c4.2-1.1,8.5-1.7,12.8-1.7v-6.9c0.1-3.2-1.1-6.3-3.3-8.6c-2.4-2.3-5.6-3.5-8.9-3.4c-2.6-0.1-5.2,0.6-7.4,2
	c-2.1,1.4-3.9,3.3-5,5.6h-1c0.9-3.9,3.2-7.3,6.5-9.6c3.4-2.4,7.5-3.6,11.7-3.6c5.6,0,10.1,1.6,13.3,4.8c3.3,3.2,4.9,7.5,4.9,12.7
	v25.4c-0.1,1,0.2,2,0.8,2.7c0.5,0.6,1.3,0.9,2.1,0.9c0.8,0.1,1.7-0.2,2.3-0.7L366,236z M347.2,231.9c1.5-1.6,2.4-3.7,2.4-6v-9.8
	c-4.7,0.1-8.4,1.1-11.1,3c-2.6,1.7-4.2,4.7-4.1,7.9c-0.2,2,0.6,4,2,5.5c1.3,1.2,3.1,1.9,4.9,1.9
	C343.6,234.5,345.7,233.6,347.2,231.9L347.2,231.9z"/>
<path d="M372,257.5c1.7-2.4,2.6-5.7,2.6-9.9v-43c0.1-2-0.2-3.9-0.8-5.8c-0.5-1.5-1.4-2.8-2.4-3.9v-0.5l13.5-4.8h0.5v9h0.5
	c1.4-2.7,3.4-5,6-6.6c2.6-1.6,5.6-2.5,8.6-2.4c3.7-0.1,7.4,1,10.5,3c3,2,5.4,4.9,6.8,8.2c1.6,3.8,2.4,8,2.4,12.2
	c0.1,4.8-1,9.6-3.1,13.9c-1.9,3.9-4.8,7.2-8.4,9.5c-3.4,2.2-7.3,3.4-11.4,3.4c-4.9,0-8.8-1.3-11.9-3.8v11.5c0,4.2,0.9,7.4,2.6,9.9
	v0.5h-16V257.5z M405.5,231.6c2.2-3.9,3.4-9.2,3.4-15.9c0-6.1-1.2-11-3.5-14.6c-2.4-3.6-5.5-5.4-9.3-5.4c-2.7-0.1-5.4,0.9-7.4,2.8
	c-2,1.8-3.1,4.3-3.3,7V226c0.2,2.9,1.3,5.7,3.2,7.9c1.9,2.3,4.7,3.6,7.7,3.5C400.2,237.4,403.3,235.5,405.5,231.6L405.5,231.6z"/>
<path d="M428.8,238.3c1.7-2.4,2.6-5.7,2.6-9.9v-27.3c0-4.2-0.9-7.5-2.6-9.9v-0.5h15.9v0.5c-1.7,2.4-2.6,5.7-2.6,9.9v24.6l20.6-25.8
	c0-1.5-0.3-3.1-0.7-4.5c-0.4-1.5-1-2.8-1.9-4.1v-0.5h15.9v0.5c-1.7,2.4-2.6,5.7-2.6,9.9v27.3c0,4.2,0.9,7.5,2.6,9.9v0.5h-15.9v-0.5
	c1.7-2.4,2.6-5.7,2.6-9.9v-24.6l-20.6,25.8c0,1.5,0.3,3,0.7,4.5c0.4,1.5,1,2.9,1.9,4.1v0.5h-15.9V238.3z"/>
<path d="M513.4,238.3c1.7-2.4,2.6-5.7,2.6-9.9v-27.3c0-4.2-0.9-7.5-2.6-9.9v-0.5H549l1.3,14.7h-1c-1-3.5-3-6.7-5.8-9.1
	c-2.5-2.3-5.8-3.5-9.2-3.5h-7.7v35.5c0,4.2,0.9,7.5,2.6,9.9v0.5h-15.9V238.3z"/>
<path d="M557,257.5c1.7-2.4,2.6-5.7,2.6-9.9v-43c0.1-2-0.2-3.9-0.8-5.8c-0.5-1.5-1.4-2.8-2.4-3.9v-0.5l13.5-4.8h0.5v9h0.5
	c1.4-2.7,3.4-5,6-6.6c2.6-1.6,5.6-2.5,8.6-2.4c3.7-0.1,7.4,1,10.5,3c3,2,5.4,4.9,6.8,8.2c1.6,3.9,2.4,8,2.3,12.2
	c0.1,4.8-1,9.6-3.1,13.9c-1.9,3.9-4.8,7.2-8.3,9.5c-3.4,2.2-7.3,3.4-11.4,3.4c-4.9,0-8.8-1.3-11.9-3.8v11.5c0,4.2,0.9,7.4,2.6,9.9
	v0.5H557V257.5z M590.5,231.6c2.2-3.9,3.4-9.2,3.4-15.9c0-6.1-1.2-11-3.5-14.6c-2.4-3.6-5.5-5.4-9.3-5.4c-2.7-0.1-5.4,0.9-7.4,2.8
	c-2,1.8-3.1,4.3-3.3,7V226c0.2,2.9,1.3,5.7,3.2,7.9c1.9,2.3,4.7,3.6,7.7,3.5C585.2,237.4,588.3,235.5,590.5,231.6L590.5,231.6z"/>
<path d="M654.4,236c-0.8,1.2-1.9,2.2-3.2,2.8c-1.5,0.7-3.1,1.1-4.8,1.1c-2.1,0.1-4.2-0.5-5.8-1.7c-1.5-1.2-2.5-3-2.6-5l-0.1-0.8
	h-0.3c-1.3,2.3-3.2,4.2-5.5,5.5c-2.5,1.4-5.4,2.1-8.2,2c-3.8,0-6.8-0.9-9-2.8c-2.2-1.8-3.4-4.6-3.3-7.4c-0.1-3.3,1.3-6.5,3.8-8.8
	c2.8-2.5,6.2-4.3,9.8-5.2c4.2-1.1,8.5-1.7,12.8-1.7v-6.9c0.3-6.3-4.5-11.7-10.9-12c-0.4,0-0.9,0-1.3,0c-2.6-0.1-5.2,0.6-7.4,2
	c-2.1,1.4-3.9,3.3-5,5.6h-1c0.9-3.9,3.2-7.3,6.5-9.6c3.4-2.4,7.5-3.6,11.7-3.6c5.6,0,10.1,1.6,13.3,4.8c3.3,3.2,4.9,7.5,4.9,12.7
	v25.4c-0.1,1,0.2,2,0.8,2.7c0.5,0.6,1.3,0.9,2.1,0.9c0.8,0.1,1.7-0.2,2.3-0.7L654.4,236z M635.6,231.9c1.5-1.6,2.4-3.7,2.4-5.9v-9.8
	c-4.7,0.1-8.4,1.1-11.1,3c-2.6,1.7-4.2,4.7-4.1,7.9c-0.2,2,0.6,4.1,2,5.5c1.3,1.2,3.1,1.9,4.9,1.9
	C632,234.6,634.1,233.6,635.6,231.9L635.6,231.9z"/>
<path d="M655.8,253.8v-17.2h0.5c2.9-0.1,5.3-1.9,7.4-5.3c2.2-3.8,3.8-7.9,4.8-12.2c1-4.1,1.6-8.4,1.7-12.6c0.1-3-0.4-6.1-1.5-8.9
	c-1-2.3-2.5-4.5-4.2-6.4v-0.5H701v0.5c-1.7,2.4-2.6,5.7-2.6,9.9v35.5h6.5v17.2h-1c-0.7-4-2.5-7.7-5.4-10.6
	c-2.7-2.9-6.6-4.5-10.6-4.5h-15.4c-4-0.1-7.8,1.5-10.5,4.5c-2.8,2.9-4.7,6.6-5.3,10.6H655.8z M687.7,236.6v-43.8h-14.9v6.4
	c0,9-0.8,16.4-2.3,22c-1.5,5.4-3.7,10.6-6.8,15.3L687.7,236.6z"/>
<path d="M219.3,145.4c0.5-0.8,1-1.6,1.2-2.6c0.3-1,0.5-2.1,0.5-3.2V116c0-1.1-0.2-2.1-0.5-3.2c-0.3-0.9-0.7-1.8-1.2-2.6V110H243
	l1.2,9h-0.5c-0.9-2.3-2.4-4.3-4.2-5.9c-2-1.4-4.4-2.1-6.8-2h-5.6v28.4c0,1.1,0.1,2.1,0.5,3.2c0.3,0.9,0.7,1.8,1.2,2.6v0.2h-9.5
	L219.3,145.4z"/>
<path d="M243.5,155.5c1-1.6,1.5-3.4,1.4-5.2v-22.8c0-1-0.1-2.1-0.4-3.1c-0.3-0.8-0.7-1.5-1.3-2.1v-0.2l7.2-2.5h0.3v4.8h0.2
	c0.7-1.4,1.8-2.6,3.1-3.5c1.4-0.9,3-1.3,4.6-1.3c2,0,3.9,0.5,5.6,1.6c1.6,1.1,2.9,2.6,3.6,4.4c0.9,2,1.3,4.2,1.2,6.5
	c0,2.6-0.5,5.1-1.6,7.4c-1,2-2.5,3.7-4.4,5c-1.8,1.2-3.9,1.8-6,1.8c-2.3,0.1-4.5-0.6-6.3-2v6.1c-0.1,1.8,0.4,3.7,1.4,5.2v0.2h-8.4
	L243.5,155.5z M261.2,141.8c1.3-2.6,1.9-5.5,1.8-8.4c0.1-2.7-0.5-5.4-1.9-7.7c-1-1.8-2.9-2.9-4.9-2.9c-1.4,0-2.9,0.5-3.9,1.5
	c-1,1-1.7,2.3-1.7,3.7v10.9c0.1,1.5,0.7,3,1.7,4.2c1,1.2,2.5,1.9,4.1,1.9C258.4,144.9,260.3,143.7,261.2,141.8L261.2,141.8z"/>
<path d="M296,144.2c-0.4,0.6-1,1.2-1.7,1.5c-0.8,0.4-1.7,0.6-2.5,0.6c-1.1,0.1-2.2-0.3-3.1-0.9c-0.8-0.7-1.3-1.6-1.4-2.6v-0.4h-0.1
	c-0.7,1.2-1.7,2.2-2.9,2.9c-1.3,0.7-2.9,1.1-4.4,1c-1.7,0.1-3.4-0.4-4.8-1.5c-1.1-1-1.8-2.4-1.7-3.9c0-1.8,0.7-3.5,2-4.6
	c1.5-1.3,3.3-2.3,5.2-2.7c2.2-0.6,4.5-0.9,6.8-0.9v-3.7c0.1-1.7-0.6-3.3-1.8-4.6c-1.3-1.2-3-1.9-4.7-1.8c-2.8-0.1-5.4,1.5-6.6,4
	h-0.5c0.5-2.1,1.7-3.9,3.4-5.1c1.8-1.3,4-1.9,6.2-1.9c2.6-0.1,5.2,0.8,7.1,2.6c1.8,1.8,2.7,4.2,2.6,6.7v13.5c0,0.5,0.1,1,0.4,1.4
	c0.3,0.3,0.7,0.5,1.1,0.5c0.4,0,0.9-0.1,1.2-0.4L296,144.2z M286,142c0.8-0.9,1.2-2,1.2-3.1v-5.2c-2.1,0-4.1,0.5-5.9,1.6
	c-1.4,0.9-2.2,2.5-2.2,4.2c-0.1,1.1,0.3,2.1,1.1,2.9c0.7,0.7,1.6,1,2.6,1C284.1,143.4,285.2,142.9,286,142z"/>
<path d="M297.8,153.6v-9.1h0.2c1.5-0.1,2.8-1,3.9-2.8c1.2-2,2-4.2,2.5-6.4c0.6-2.2,0.9-4.4,0.9-6.7c0.1-1.6-0.2-3.2-0.8-4.7
	c-0.5-1.2-1.3-2.4-2.2-3.4v-0.2h19.4v0.2c-1,1.6-1.5,3.4-1.4,5.2v18.8h3.5v9.1h-0.5c-0.4-2.1-1.4-4.1-2.9-5.6
	c-1.4-1.5-3.5-2.4-5.6-2.4h-8.2c-2.1,0-4.1,0.8-5.6,2.4c-1.5,1.5-2.5,3.5-2.8,5.6L297.8,153.6z M314.6,144.5v-23.2h-7.9v3.4
	c0.1,3.9-0.3,7.8-1.2,11.6c-0.8,2.9-2,5.6-3.6,8.1L314.6,144.5z"/>
<path d="M331.3,144.7c-1.8-1-3.3-2.5-4.2-4.4c-1.1-2.1-1.6-4.4-1.5-6.8c0-2.5,0.6-4.9,1.8-7.1c1.2-2.1,2.9-3.8,5-5.1
	c2-1.2,4.4-1.9,6.7-1.9c1.3,0,2.6,0.2,3.8,0.5c1.2,0.3,2.4,0.8,3.5,1.4v7.2h-0.5c-0.6-2.1-1.8-4-3.4-5.5c-1.4-1.4-3.3-2.1-5.2-2.1
	c-2.6,0-5.1,1.5-6.1,3.9c-0.7,1.6-1.1,3.3-1,5c0,2.1,0.4,4.2,1.3,6.1c0.8,1.7,2,3.2,3.6,4.3c1.5,1,3.2,1.6,5,1.6
	c1.5,0,3-0.4,4.2-1.2c1.3-0.8,2.3-2,2.8-3.4h0.5c-0.7,5.2-5.2,9-10.4,8.9C335.1,146.2,333.1,145.7,331.3,144.7z"/>
<path d="M369.4,144.9c-1-0.7-1.7-1.6-2.3-2.6c-0.7-1.2-1.2-2.5-1.7-3.8c-0.5-1.5-1.1-2.8-2-4.1c-0.6-0.9-1.6-1.4-2.7-1.3h-1.2v7.1
	c-0.1,1.8,0.4,3.7,1.4,5.2v0.2h-8.4v-0.2c1-1.6,1.5-3.4,1.4-5.2v-14.4c0.1-1.8-0.4-3.7-1.4-5.2v-0.2h8.4v0.2c-1,1.6-1.5,3.4-1.4,5.2
	v6.4h0.8c0.7,0,1.3-0.3,1.8-0.8l5.2-6c0.9-0.9,1.4-2.1,1.6-3.3c0-0.6-0.2-1.2-0.6-1.6v-0.2h7v0.2c-2.5,1.2-4.7,2.9-6.5,5l-6,6.9
	c1.6,0,3.2,0.4,4.6,1.2c1.1,0.7,2.1,1.6,2.9,2.7c0.8,1.2,1.5,2.5,2.1,3.9c0.4,1,1,2,1.6,2.9c0.4,0.6,1,1,1.7,1
	c0.7-0.1,1.4-0.4,1.8-1l0.4,0.2c-0.9,1.7-2.4,2.6-4.7,2.6C371.8,146,370.5,145.6,369.4,144.9z"/>
<path d="M402.5,144.2c-0.4,0.6-1,1.2-1.7,1.5c-0.8,0.4-1.7,0.6-2.5,0.6c-1.1,0.1-2.2-0.3-3.1-0.9c-0.8-0.7-1.3-1.6-1.4-2.6l0-0.4
	h-0.1c-0.7,1.2-1.7,2.2-2.9,2.9c-1.3,0.7-2.9,1.1-4.4,1c-1.7,0.1-3.4-0.4-4.8-1.5c-1.1-1-1.8-2.4-1.7-3.9c0-1.8,0.7-3.5,2-4.6
	c1.5-1.3,3.3-2.3,5.2-2.7c2.2-0.6,4.5-0.9,6.8-0.9v-3.7c0.2-3.3-2.4-6.2-5.7-6.4c-0.2,0-0.5,0-0.7,0c-1.4,0-2.8,0.3-3.9,1.1
	c-1.1,0.7-2.1,1.7-2.7,2.9h-0.5c0.5-2.1,1.7-3.9,3.4-5.1c1.8-1.3,4-1.9,6.2-1.9c2.6-0.1,5.2,0.8,7.1,2.6c1.8,1.8,2.7,4.2,2.6,6.7
	v13.5c0,0.5,0.1,1,0.4,1.4c0.3,0.3,0.7,0.5,1.1,0.5c0.4,0,0.9-0.1,1.2-0.4L402.5,144.2z M392.5,142c0.8-0.9,1.3-2,1.2-3.1v-5.2
	c-2.1,0-4.1,0.5-5.9,1.6c-1.4,0.9-2.2,2.5-2.2,4.2c-0.1,1.1,0.3,2.1,1.1,2.9c0.7,0.7,1.6,1,2.6,1C390.6,143.4,391.8,142.9,392.5,142
	z"/>
<path d="M424.2,144.5c-1.9-1.1-3.4-2.8-4.4-4.8c-2.1-4.3-2.1-9.3,0-13.6c1-2,2.5-3.6,4.4-4.8c4-2.3,9-2.3,13.1,0
	c1.9,1.1,3.4,2.8,4.4,4.8c2.1,4.3,2.1,9.3,0,13.6c-1,2-2.5,3.6-4.4,4.8C433.3,146.8,428.3,146.8,424.2,144.5z M435.5,141.7
	c2.1-5.7,2.1-11.9,0-17.6c-1.1-2.2-2.7-3.4-4.8-3.4c-2.1,0-3.6,1.1-4.7,3.4c-2.2,5.7-2.2,12,0,17.6c1.1,2.2,2.7,3.4,4.7,3.4
	S434.5,144,435.5,141.7z"/>
<path d="M448.9,145.4c1-1.6,1.5-3.4,1.4-5.2v-14.4c0.1-1.8-0.4-3.7-1.4-5.2v-0.2h24.5v0.2c-1,1.6-1.5,3.4-1.4,5.2v14.4
	c-0.1,1.8,0.4,3.7,1.4,5.2v0.2H465v-0.2c1-1.6,1.5-3.4,1.4-5.2v-18.8H456v18.8c-0.1,1.8,0.4,3.7,1.4,5.2v0.2h-8.4L448.9,145.4z"/>
<path d="M480.5,145.4c1-1.6,1.5-3.4,1.4-5.2v-14.4c0.1-1.8-0.4-3.7-1.4-5.2v-0.2h8.4v0.2c-1,1.6-1.5,3.4-1.4,5.2v18.8h8.5v-18.8
	c0.1-1.8-0.4-3.7-1.4-5.2v-0.2h8.4v0.2c-1,1.6-1.5,3.4-1.4,5.2v18.8h8.4v-18.8c0.1-1.8-0.4-3.7-1.4-5.2v-0.2h8.4v0.2
	c-1,1.6-1.5,3.4-1.4,5.2v14.4c-0.1,1.8,0.4,3.7,1.4,5.2v0.2h-36.7V145.4z"/>
<path d="M529.1,145.4c1-1.6,1.5-3.4,1.4-5.2v-18.8h-1.6c-1.7,0-3.3,0.7-4.4,1.9c-1.3,1.3-2.3,3-2.8,4.8h-0.5l0.8-7.8h22.7l0.8,7.8
	H545c-0.5-1.8-1.5-3.5-2.8-4.8c-1.1-1.2-2.7-1.9-4.4-1.9h-1.6v18.8c-0.1,1.8,0.4,3.7,1.4,5.2v0.2h-8.4L529.1,145.4z"/>
<path d="M549.5,145.4c1-1.6,1.5-3.4,1.4-5.2v-14.4c0.1-1.8-0.4-3.7-1.4-5.2v-0.2h8.5v0.2c-1,1.6-1.5,3.4-1.4,5.2v13l10.9-13.7
	c0-0.8-0.1-1.6-0.4-2.4c-0.2-0.8-0.6-1.5-1-2.2v-0.2h8.4v0.2c-1,1.6-1.5,3.4-1.4,5.2v14.4c-0.1,1.8,0.4,3.7,1.4,5.2v0.2h-8.4v-0.2
	c1-1.6,1.5-3.4,1.4-5.2v-13l-10.9,13.7c0,0.8,0.1,1.6,0.4,2.4c0.2,0.8,0.6,1.5,1,2.2v0.2h-8.4L549.5,145.4z"/>
<path d="M581.6,145.4c1-1.6,1.5-3.4,1.4-5.2v-14.4c0.1-1.8-0.4-3.7-1.4-5.2v-0.2h8.4v0.2c-1,1.6-1.5,3.4-1.4,5.2v6.3h10.8v-6.4
	c0.1-1.8-0.4-3.7-1.4-5.2v-0.2h8.4v0.2c-1,1.6-1.5,3.4-1.4,5.2v14.4c-0.1,1.8,0.4,3.7,1.4,5.2v0.2H598v-0.2c1-1.6,1.5-3.4,1.4-5.2
	v-7h-10.7v7c-0.1,1.8,0.4,3.7,1.4,5.2v0.2h-8.4V145.4z"/>
<path d="M634.9,144.2c-0.4,0.6-1,1.2-1.7,1.5c-0.8,0.4-1.7,0.6-2.5,0.6c-1.1,0.1-2.2-0.3-3.1-0.9c-0.8-0.7-1.3-1.6-1.4-2.6l0-0.4
	H626c-0.7,1.2-1.7,2.2-2.9,2.9c-1.3,0.7-2.9,1.1-4.4,1c-1.7,0.1-3.4-0.4-4.8-1.5c-1.1-1-1.8-2.4-1.7-3.9c0-1.8,0.7-3.5,2-4.6
	c1.5-1.3,3.3-2.3,5.2-2.7c2.2-0.6,4.5-0.9,6.8-0.9v-3.7c0.1-1.7-0.6-3.3-1.8-4.6c-1.3-1.2-3-1.9-4.7-1.8c-2.8-0.1-5.4,1.5-6.6,4
	h-0.5c0.5-2.1,1.7-3.9,3.4-5.1c1.8-1.3,4-1.9,6.2-1.9c2.6-0.1,5.2,0.8,7.1,2.6c1.8,1.8,2.7,4.2,2.6,6.7v13.5c0,0.5,0.1,1,0.4,1.4
	c0.3,0.3,0.7,0.5,1.1,0.5c0.4,0,0.9-0.1,1.2-0.4L634.9,144.2z M625,142c0.8-0.9,1.2-2,1.2-3.1v-5.2c-2.1,0-4.1,0.5-5.9,1.6
	c-1.4,0.9-2.2,2.5-2.2,4.2c-0.1,1.1,0.3,2.1,1.1,2.9c0.7,0.7,1.6,1,2.6,1C623.1,143.4,624.2,142.9,625,142z"/>
</svg>
