<?xml version="1.0" encoding="iso-8859-1"?>
<!-- Generator: Adobe Illustrator 19.0.0, SVG Export Plug-In . SVG Version: 6.00 Build 0)  -->
<svg version="1.1" id="Capa_1" xmlns="http://www.w3.org/2000/svg" xmlns:xlink="http://www.w3.org/1999/xlink" x="0px" y="0px"
	 viewBox="0 0 512 512" style="enable-background:new 0 0 512 512;" xml:space="preserve">
<g>
	<polygon style="fill:#D8C782;" points="423.724,138.805 423.724,211.862 423.724,285.422 310.36,379.895 512,512 512,211.862 	"/>
	<polygon style="fill:#D8C782;" points="88.276,211.862 88.276,138.805 0,211.862 0,512 201.64,379.895 88.276,285.422 	"/>
</g>
<g>
	<polygon style="fill:#F7E6A1;" points="423.724,211.862 512,211.862 423.724,138.805 	"/>
	<polygon style="fill:#F7E6A1;" points="88.276,138.805 0,211.862 88.276,211.862 	"/>
	<polygon style="fill:#F7E6A1;" points="317.793,52.966 256,0 194.207,52.966 	"/>
</g>
<g>
	<polyline style="fill:#D8C782;" points="88.276,211.862 0,211.862 0,512 512,512 512,211.862 423.724,211.862 	"/>
	<polygon style="fill:#D8C782;" points="423.724,211.862 423.724,285.422 310.36,379.895 512,512 512,211.862 	"/>
	<polygon style="fill:#D8C782;" points="88.276,285.422 88.276,211.862 0,211.862 0,512 201.64,379.895 	"/>
</g>
<path style="fill:#E7ECED;" d="M325.191,52.966H88.276v232.457l113.364,94.464l29.325-19.218c15.201-9.957,34.869-9.957,50.07,0
	l29.325,19.218l113.364-94.464V52.966H325.191z"/>
<g>
	<polygon style="fill:#F7E6A1;" points="310.36,379.895 512,512 512,211.862 	"/>
	<polygon style="fill:#F7E6A1;" points="0,211.862 0,512 201.64,379.895 	"/>
</g>
<circle style="fill:#25AE88;" cx="406.069" cy="88.276" r="88.276"/>
<path style="fill:#DD352E;" d="M326.621,220.69h-61.793c-4.873,0-8.828-3.946-8.828-8.828c0-4.882,3.955-8.828,8.828-8.828h61.793
	c4.873,0,8.828,3.946,8.828,8.828C335.448,216.744,331.493,220.69,326.621,220.69z"/>
<path style="fill:#23A24D;" d="M229.517,220.69h-97.103c-4.873,0-8.828-3.946-8.828-8.828c0-4.882,3.955-8.828,8.828-8.828h97.103
	c4.873,0,8.828,3.946,8.828,8.828C238.345,216.744,234.39,220.69,229.517,220.69z"/>
<path style="fill:#DC691D;" d="M353.103,308.966H291.31c-4.873,0-8.828-3.946-8.828-8.828c0-4.882,3.955-8.828,8.828-8.828h61.793
	c4.873,0,8.828,3.946,8.828,8.828C361.931,305.02,357.976,308.966,353.103,308.966z"/>
<path style="fill:#EBBA16;" d="M256,308.966h-97.103c-4.873,0-8.828-3.946-8.828-8.828c0-4.882,3.955-8.828,8.828-8.828H256
	c4.873,0,8.828,3.946,8.828,8.828C264.828,305.02,260.873,308.966,256,308.966z"/>
<path style="fill:#6B1E31;" d="M379.586,220.69h-17.655c-4.873,0-8.828-3.946-8.828-8.828c0-4.882,3.955-8.828,8.828-8.828h17.655
	c4.873,0,8.828,3.946,8.828,8.828C388.414,216.744,384.459,220.69,379.586,220.69z"/>
<path style="fill:#FC3952;" d="M247.172,264.828h-61.793c-4.873,0-8.828-3.946-8.828-8.828s3.955-8.828,8.828-8.828h61.793
	c4.873,0,8.828,3.946,8.828,8.828S252.045,264.828,247.172,264.828z"/>
<path style="fill:#366DB6;" d="M379.586,264.828h-97.103c-4.873,0-8.828-3.946-8.828-8.828s3.955-8.828,8.828-8.828h97.103
	c4.873,0,8.828,3.946,8.828,8.828S384.459,264.828,379.586,264.828z"/>
<path style="fill:#EBBA16;" d="M185.379,176.552h-61.793c-4.873,0-8.828-3.946-8.828-8.828s3.955-8.828,8.828-8.828h61.793
	c4.873,0,8.828,3.946,8.828,8.828S190.252,176.552,185.379,176.552z"/>
<path style="fill:#DC691D;" d="M317.793,176.552H220.69c-4.873,0-8.828-3.946-8.828-8.828s3.955-8.828,8.828-8.828h97.103
	c4.873,0,8.828,3.946,8.828,8.828S322.666,176.552,317.793,176.552z"/>
<path style="fill:#75348B;" d="M150.069,264.828h-17.655c-4.873,0-8.828-3.946-8.828-8.828s3.955-8.828,8.828-8.828h17.655
	c4.873,0,8.828,3.946,8.828,8.828S154.942,264.828,150.069,264.828z"/>
<path style="fill:#366DB6;" d="M291.31,132.414H185.379c-4.873,0-8.828-3.946-8.828-8.828s3.955-8.828,8.828-8.828H291.31
	c4.873,0,8.828,3.946,8.828,8.828S296.183,132.414,291.31,132.414z"/>
<path style="fill:#CB465F;" d="M150.069,132.414h-17.655c-4.873,0-8.828-3.946-8.828-8.828s3.955-8.828,8.828-8.828h17.655
	c4.873,0,8.828,3.946,8.828,8.828S154.942,132.414,150.069,132.414z"/>
<path style="fill:#FFFFFF;" d="M397.241,123.586c-2.339,0-4.582-0.918-6.241-2.586l-26.483-26.483
	c-3.452-3.452-3.452-9.031,0-12.482c3.443-3.452,9.039-3.452,12.482,0l19.65,19.65l37.95-45.542
	c3.125-3.752,8.686-4.237,12.429-1.13c3.743,3.125,4.255,8.686,1.13,12.438l-44.138,52.966c-1.589,1.907-3.902,3.054-6.382,3.16
	C397.506,123.586,397.374,123.586,397.241,123.586z"/>
<g>
</g>
<g>
</g>
<g>
</g>
<g>
</g>
<g>
</g>
<g>
</g>
<g>
</g>
<g>
</g>
<g>
</g>
<g>
</g>
<g>
</g>
<g>
</g>
<g>
</g>
<g>
</g>
<g>
</g>
</svg>
