<?xml version="1.0"?>
<svg xmlns="http://www.w3.org/2000/svg" xmlns:xlink="http://www.w3.org/1999/xlink" xmlns:svgjs="http://svgjs.com/svgjs" version="1.1" width="512" height="512" x="0" y="0" viewBox="0 0 512 512" style="enable-background:new 0 0 512 512" xml:space="preserve" class=""><g><path xmlns="http://www.w3.org/2000/svg" d="m392 488h-384v-464h352a32 32 0 0 1 32 32z" fill="#becfd3" data-original="#e1e3e6" style="" class=""/><path xmlns="http://www.w3.org/2000/svg" d="m56 152h64v64h-64z" fill="#3fa8ad" data-original="#a3d4f7" style="" class=""/><path xmlns="http://www.w3.org/2000/svg" d="m344 160h-192a8 8 0 0 1 0-16h192a8 8 0 0 1 0 16z" fill="#9aa3a8" data-original="#9aa3a8" style="" class=""/><path xmlns="http://www.w3.org/2000/svg" d="m344 192h-192a8 8 0 0 1 0-16h192a8 8 0 0 1 0 16z" fill="#9aa3a8" data-original="#9aa3a8" style="" class=""/><path xmlns="http://www.w3.org/2000/svg" d="m264 224h-112a8 8 0 0 1 0-16h112a8 8 0 0 1 0 16z" fill="#9aa3a8" data-original="#9aa3a8" style="" class=""/><path xmlns="http://www.w3.org/2000/svg" d="m56 264h64v64h-64z" fill="#3fa8ad" data-original="#a3d4f7" style="" class=""/><path xmlns="http://www.w3.org/2000/svg" d="m288 272h-136a8 8 0 0 1 0-16h136a8 8 0 0 1 0 16z" fill="#9aa3a8" data-original="#9aa3a8" style="" class=""/><path xmlns="http://www.w3.org/2000/svg" d="m248 304h-96a8 8 0 0 1 0-16h96a8 8 0 0 1 0 16z" fill="#9aa3a8" data-original="#9aa3a8" style="" class=""/><path xmlns="http://www.w3.org/2000/svg" d="m216 336h-64a8 8 0 0 1 0-16h64a8 8 0 0 1 0 16z" fill="#9aa3a8" data-original="#9aa3a8" style="" class=""/><path xmlns="http://www.w3.org/2000/svg" d="m56 376h64v64h-64z" fill="#3fa8ad" data-original="#a3d4f7" style="" class=""/><path xmlns="http://www.w3.org/2000/svg" d="m232 384h-80a8 8 0 0 1 0-16h80a8 8 0 0 1 0 16z" fill="#9aa3a8" data-original="#9aa3a8" style="" class=""/><path xmlns="http://www.w3.org/2000/svg" d="m232 416h-80a8 8 0 0 1 0-16h80a8 8 0 0 1 0 16z" fill="#9aa3a8" data-original="#9aa3a8" style="" class=""/><path xmlns="http://www.w3.org/2000/svg" d="m192 448h-40a8 8 0 0 1 0-16h40a8 8 0 0 1 0 16z" fill="#9aa3a8" data-original="#9aa3a8" style="" class=""/><path xmlns="http://www.w3.org/2000/svg" d="m64 216a8 8 0 0 1 -5.657-13.657l48-48a8 8 0 0 1 11.314 11.314l-48 48a7.976 7.976 0 0 1 -5.657 2.343z" fill="#177b85" data-original="#3397e8" style="" class=""/><path xmlns="http://www.w3.org/2000/svg" d="m64 328a8 8 0 0 1 -5.657-13.657l48-48a8 8 0 0 1 11.314 11.314l-48 48a7.976 7.976 0 0 1 -5.657 2.343z" fill="#177b85" data-original="#3397e8" style="" class=""/><circle xmlns="http://www.w3.org/2000/svg" cx="392" cy="376" fill="#e3edef" r="112" data-original="#e9eef2" style="" class=""/><g xmlns="http://www.w3.org/2000/svg" fill="#9aa3a8"><path d="m456 384h-64a8 8 0 0 1 -8-8v-48a8 8 0 0 1 16 0v40h56a8 8 0 0 1 0 16z" fill="#9aa3a8" data-original="#9aa3a8" style="" class=""/><path d="m504 384h-16a8 8 0 0 1 0-16h16z" fill="#9aa3a8" data-original="#9aa3a8" style="" class=""/><path d="m280 368h16a8 8 0 0 1 0 16h-16z" fill="#9aa3a8" data-original="#9aa3a8" style="" class=""/><path d="m384 488v-16a8 8 0 0 1 16 0v16z" fill="#9aa3a8" data-original="#9aa3a8" style="" class=""/><path d="m400 264v16a8 8 0 0 1 -16 0v-16z" fill="#9aa3a8" data-original="#9aa3a8" style="" class=""/><path d="m307.146 449.539 11.315-11.314a8 8 0 0 1 11.314 11.314l-11.314 11.315z" fill="#9aa3a8" data-original="#9aa3a8" style="" class=""/><path d="m476.854 302.461-11.315 11.314a8 8 0 0 1 -11.314-11.314l11.314-11.315z" fill="#9aa3a8" data-original="#9aa3a8" style="" class=""/><path d="m465.539 460.854-11.314-11.315a8 8 0 0 1 11.314-11.314l11.315 11.314z" fill="#9aa3a8" data-original="#9aa3a8" style="" class=""/><path d="m318.461 291.146 11.314 11.315a8 8 0 0 1 -11.314 11.314l-11.315-11.314z" fill="#9aa3a8" data-original="#9aa3a8" style="" class=""/></g><path xmlns="http://www.w3.org/2000/svg" d="m392 496a120 120 0 1 1 120-120 120.136 120.136 0 0 1 -120 120zm0-224a104 104 0 1 0 104 104 104.118 104.118 0 0 0 -104-104z" fill="#ffb632" data-original="#ffb632" style="" class=""/><path xmlns="http://www.w3.org/2000/svg" d="m320 24h40a32 32 0 0 1 32 32v32h-48v-40a24 24 0 0 0 -24-24z" fill="#e3edef" data-original="#e9eef2" style="" class=""/><path xmlns="http://www.w3.org/2000/svg" d="m136 80h-80a8 8 0 0 1 0-16h80a8 8 0 0 1 0 16z" fill="#9aa3a8" data-original="#9aa3a8" style="" class=""/><path xmlns="http://www.w3.org/2000/svg" d="m184 112h-128a8 8 0 0 1 0-16h128a8 8 0 0 1 0 16z" fill="#9aa3a8" data-original="#9aa3a8" style="" class=""/></g></svg>
